Coordinates
version=1
nRows=116
nColumns=11
inDegrees=no

Units are S.I. units (second, meters, Newtons, ...)
If the header above contains a line with 'inDegrees', this indicates whether rotational values are in degrees (yes) or radians (no).

endheader
time	pelvis_tilt	pelvis_tx	pelvis_ty	hip_flexion_r	knee_angle_r	ankle_angle_r	hip_flexion_l	knee_angle_l	ankle_angle_l	lumbar_extension
210.01	-0.144801	0.163999	0.894322	0.743666	-0.324799	0.0988826	-0.123088	-0.255333	0.327665	0
210.02	-0.142609	0.165749	0.894219	0.742746	-0.35235	0.0774144	-0.128258	-0.278217	0.304774	0
210.03	-0.138141	0.167883	0.894603	0.737462	-0.379152	0.0597717	-0.134208	-0.304803	0.277637	0
210.04	-0.13911	0.169547	0.895171	0.739762	-0.409605	0.0533271	-0.128338	-0.338224	0.240882	0
210.05	-0.137774	0.171386	0.896387	0.737564	-0.439668	0.0582417	-0.12111	-0.376732	0.202447	0
210.06	-0.136211	0.172872	0.897817	0.731658	-0.463146	0.0669641	-0.106709	-0.425731	0.160223	0
210.07	-0.11867	0.176507	0.900427	0.701337	-0.479053	0.0772424	-0.107906	-0.481036	0.10913	0
210.08	-0.13502	0.175171	0.901174	0.711906	-0.490886	0.0895972	-0.0575405	-0.549127	0.053366	0
210.09	-0.133427	0.176453	0.903143	0.696748	-0.497766	0.106106	-0.0276269	-0.617923	-0.00410122	0
210.1	-0.130905	0.177739	0.905361	0.678381	-0.500627	0.120347	0.00349071	-0.685275	-0.0668606	0
210.11	-0.127885	0.178989	0.907382	0.658741	-0.502722	0.135111	0.0372102	-0.754508	-0.127395	0
210.12	-0.108176	0.182642	0.910666	0.616831	-0.503847	0.153056	0.0499835	-0.816237	-0.195969	0
210.13	-0.104482	0.183169	0.913202	0.59445	-0.502696	0.167233	0.086872	-0.875443	-0.273557	0
210.14	-0.103574	0.18283	0.915261	0.576581	-0.501953	0.180282	0.126677	-0.931971	-0.322726	0
210.15	-0.11814	0.179227	0.916513	0.576269	-0.49488	0.194133	0.190416	-0.994018	-0.336065	0
210.16	-0.100095	0.182208	0.920519	0.53016	-0.484556	0.210378	0.201531	-1.03427	-0.307742	0
210.17	-0.0954515	0.183026	0.923331	0.501053	-0.471845	0.227755	0.235078	-1.07966	-0.256784	0
210.18	-0.0921322	0.183094	0.926366	0.472676	-0.456515	0.236955	0.268675	-1.11467	-0.210852	0
210.19	-0.0902218	0.182673	0.929151	0.444765	-0.438336	0.242851	0.303935	-1.14316	-0.167639	0
210.2	-0.0891783	0.181964	0.931712	0.41869	-0.420733	0.249065	0.34063	-1.16548	-0.134119	0
210.21	-0.0900133	0.180884	0.933909	0.394613	-0.401625	0.254391	0.380083	-1.18357	-0.107261	0
210.22	-0.0880387	0.179996	0.93607	0.367384	-0.383383	0.259593	0.412709	-1.19114	-0.0855935	0
210.23	-0.103726	0.175643	0.936541	0.365374	-0.365252	0.260916	0.472797	-1.19966	-0.0674501	0
210.24	-0.08353	0.178841	0.939651	0.315293	-0.349228	0.267375	0.473603	-1.18654	-0.0498906	0
210.25	-0.0832126	0.177819	0.940886	0.29381	-0.335453	0.267566	0.504545	-1.17632	-0.0334837	0
210.26	-0.101635	0.172761	0.940124	0.296991	-0.320239	0.267554	0.563775	-1.16765	-0.0168559	0
210.27	-0.101114	0.171115	0.940598	0.274596	-0.307241	0.274299	0.590648	-1.14689	-0.00368171	0
210.28	-0.100735	0.170828	0.940613	0.253948	-0.294381	0.279492	0.615659	-1.1188	0.0137391	0
210.29	-0.100418	0.169742	0.940488	0.234585	-0.28534	0.283348	0.635713	-1.08284	0.0329555	0
210.3	-0.0792964	0.172373	0.941823	0.188334	-0.279608	0.291794	0.623414	-1.03897	0.0491622	0
210.31	-0.0774102	0.171533	0.94126	0.167187	-0.269807	0.300119	0.638837	-0.995489	0.0647152	0
210.32	-0.0780564	0.170233	0.940148	0.150794	-0.262544	0.308963	0.654939	-0.947481	0.0776987	0
210.33	-0.0772114	0.169437	0.938824	0.131679	-0.255004	0.31721	0.665724	-0.894068	0.0893305	0
210.34	-0.0765126	0.168591	0.937111	0.113079	-0.248357	0.325662	0.675011	-0.8373	0.0974519	0
210.35	-0.0765887	0.16761	0.935168	0.0975618	-0.245504	0.335485	0.683019	-0.776754	0.0994886	0
210.36	-0.0785196	0.166588	0.932893	0.0835712	-0.242454	0.34409	0.69123	-0.714266	0.0970544	0
210.37	-0.0994544	0.163564	0.929034	0.0909561	-0.232454	0.349961	0.721915	-0.650268	0.0946383	0
210.38	-0.0793774	0.166803	0.928003	0.0451927	-0.227706	0.367086	0.694802	-0.582601	0.0940994	0
210.39	-0.101861	0.163261	0.923508	0.0561019	-0.221547	0.375125	0.721941	-0.511875	0.0945084	0
210.4	-0.0800039	0.166878	0.922451	0.00984246	-0.220568	0.391148	0.688625	-0.442234	0.0995292	0
210.41	-0.0783322	0.167702	0.919789	-0.0143832	-0.209583	0.401688	0.682828	-0.382414	0.112876	0
210.42	-0.077826	0.168337	0.916982	-0.0341617	-0.204727	0.411966	0.683653	-0.33917	0.125849	0
210.43	-0.0988324	0.165869	0.912756	-0.0253992	-0.201053	0.414522	0.713256	-0.306395	0.136026	0
210.44	-0.101978	0.166364	0.909852	-0.0384511	-0.199547	0.419336	0.719195	-0.28152	0.145397	0
210.45	-0.100653	0.167406	0.90728	-0.0579134	-0.196763	0.425484	0.720394	-0.267942	0.155645	0
210.46	-0.098261	0.168761	0.905097	-0.0780307	-0.196257	0.425896	0.721517	-0.266519	0.166935	0
210.47	-0.0969361	0.169967	0.903067	-0.0945413	-0.199687	0.423471	0.724278	-0.276207	0.175543	0
210.48	-0.0951642	0.171155	0.901252	-0.110211	-0.205377	0.419219	0.728481	-0.298513	0.173589	0
210.49	-0.0931937	0.172557	0.899738	-0.126137	-0.211734	0.412164	0.731069	-0.327155	0.157999	0
210.5	-0.0911005	0.174185	0.898308	-0.141792	-0.218566	0.399927	0.733006	-0.360307	0.141421	0
210.51	-0.0880156	0.176276	0.897039	-0.15783	-0.227052	0.384765	0.733713	-0.395395	0.127323	0
210.52	-0.0856305	0.178306	0.896182	-0.170885	-0.239965	0.369806	0.732414	-0.425488	0.117365	0
210.53	-0.0838975	0.1802	0.895617	-0.180481	-0.256892	0.351199	0.730249	-0.451195	0.106822	0
210.54	-0.0814725	0.182301	0.895547	-0.18885	-0.276192	0.32243	0.727821	-0.477503	0.0929546	0
210.55	-0.0766171	0.184797	0.896063	-0.196342	-0.30183	0.290547	0.720391	-0.502795	0.0843636	0
210.56	-0.0769496	0.186766	0.896759	-0.192316	-0.335186	0.255844	0.716982	-0.526447	0.0849899	0
210.57	-0.0755814	0.188999	0.89783	-0.186892	-0.373604	0.219394	0.709627	-0.54781	0.0975853	0
210.58	-0.07489	0.190827	0.899213	-0.173142	-0.42166	0.173622	0.701751	-0.566883	0.116697	0
210.59	-0.0742446	0.192026	0.900886	-0.154633	-0.476868	0.122593	0.688923	-0.579538	0.137931	0
210.6	-0.0730216	0.194087	0.902641	-0.12834	-0.542125	0.0714967	0.672993	-0.584138	0.152625	0
210.61	-0.0721627	0.195136	0.904706	-0.0971361	-0.613565	0.0186398	0.655475	-0.586041	0.167752	0
210.62	-0.0716536	0.196022	0.906845	-0.0618272	-0.687089	-0.0394893	0.6362	-0.585196	0.186228	0
210.63	-0.0699496	0.196856	0.909068	-0.0256097	-0.759829	-0.0973476	0.612226	-0.579843	0.207043	0
210.64	-0.0530077	0.199808	0.912461	-0.00987635	-0.823146	-0.158137	0.572475	-0.577993	0.220421	0
210.65	-0.0556641	0.199208	0.914616	0.0356373	-0.888252	-0.220359	0.559501	-0.577318	0.228918	0
210.66	-0.0738118	0.195303	0.915616	0.103729	-0.955123	-0.255706	0.564367	-0.571372	0.238177	0
210.67	-0.0616227	0.197137	0.918805	0.124715	-1.00501	-0.25481	0.52754	-0.562738	0.24839	0
210.68	-0.0778929	0.193779	0.920181	0.192165	-1.06734	-0.227883	0.526559	-0.548749	0.255163	0
210.69	-0.0794054	0.192565	0.92283	0.23403	-1.11318	-0.183509	0.50516	-0.534526	0.260827	0
210.7	-0.0805815	0.191315	0.925401	0.275833	-1.15088	-0.143506	0.483624	-0.518999	0.264159	0
210.71	-0.0828178	0.189944	0.927934	0.318864	-1.18093	-0.113718	0.461689	-0.500435	0.266883	0
210.72	-0.0843816	0.188758	0.930657	0.360736	-1.20445	-0.093198	0.438853	-0.481335	0.26722	0
210.73	-0.085749	0.187508	0.933317	0.400037	-1.21853	-0.078208	0.415385	-0.461055	0.267052	0
210.74	-0.0869449	0.186238	0.935906	0.437032	-1.2235	-0.0673638	0.391126	-0.438778	0.266517	0
210.75	-0.0750858	0.187431	0.939411	0.449746	-1.21495	-0.057051	0.347362	-0.415326	0.270193	0
210.76	-0.10014	0.181016	0.939075	0.523463	-1.2223	-0.0474	0.356158	-0.395137	0.266942	0
210.77	-0.0738794	0.185469	0.943198	0.509309	-1.1969	-0.0365051	0.293269	-0.372903	0.273944	0
210.78	-0.0753346	0.184077	0.944558	0.53891	-1.17917	-0.0202736	0.271268	-0.3538	0.270556	0
210.79	-0.0949705	0.178986	0.944059	0.594348	-1.16169	0.00340396	0.273721	-0.333659	0.265806	0
210.8	-0.0962048	0.177829	0.944667	0.618409	-1.13202	0.0278009	0.252912	-0.316836	0.266988	0
210.81	-0.076207	0.180434	0.946647	0.606847	-1.09067	0.0515999	0.203943	-0.302046	0.274623	0
210.82	-0.0741783	0.179561	0.94697	0.61941	-1.04849	0.0786951	0.17763	-0.283234	0.279916	0
210.83	-0.0749649	0.178072	0.946531	0.634491	-1.00218	0.106975	0.157189	-0.267446	0.282614	0
210.84	-0.0791213	0.175823	0.945358	0.651656	-0.950137	0.128373	0.144609	-0.260026	0.283903	0
210.85	-0.0811356	0.174241	0.944333	0.660496	-0.887644	0.14268	0.128197	-0.250778	0.28691	0
210.86	-0.0823229	0.173021	0.94311	0.66385	-0.81757	0.142245	0.109956	-0.239988	0.295481	0
210.87	-0.103044	0.168888	0.940055	0.691714	-0.745164	0.130902	0.118602	-0.229656	0.301243	0
210.88	-0.10544	0.167752	0.937966	0.690687	-0.667379	0.115416	0.102951	-0.221509	0.308729	0
210.89	-0.105929	0.167295	0.93584	0.685184	-0.587947	0.100544	0.0829723	-0.210011	0.314999	0
210.9	-0.106234	0.166973	0.933546	0.678413	-0.509109	0.0914307	0.0642579	-0.201594	0.322801	0
210.91	-0.106345	0.166614	0.930954	0.671537	-0.43383	0.0884552	0.0456617	-0.194729	0.329608	0
210.92	-0.105447	0.16654	0.928195	0.663404	-0.362078	0.094645	0.0264529	-0.190607	0.337292	0
210.93	-0.0859587	0.169134	0.926565	0.632811	-0.297396	0.10531	-0.0179932	-0.186668	0.352015	0
210.94	-0.0840187	0.169678	0.923759	0.625093	-0.237287	0.112111	-0.0402842	-0.17922	0.359686	0
210.95	-0.084352	0.169827	0.92068	0.621792	-0.185693	0.12015	-0.0588742	-0.173083	0.365612	0
210.96	-0.082913	0.170291	0.917545	0.618541	-0.145481	0.131691	-0.0796167	-0.167187	0.372037	0
210.97	-0.100389	0.168234	0.913206	0.643174	-0.120176	0.135233	-0.072743	-0.166284	0.377838	0
210.98	-0.10116	0.168338	0.910145	0.649148	-0.109385	0.141276	-0.0871501	-0.168337	0.386285	0
210.99	-0.0800866	0.171474	0.908884	0.626263	-0.106833	0.151646	-0.131966	-0.166931	0.393503	0
211	-0.0823258	0.172117	0.906449	0.637409	-0.121053	0.154541	-0.143833	-0.167841	0.391828	0
211.01	-0.102367	0.169528	0.903213	0.672481	-0.149675	0.14054	-0.12959	-0.175502	0.383394	0
211.02	-0.10426	0.169572	0.901465	0.684089	-0.186092	0.123978	-0.138848	-0.182865	0.377505	0
211.03	-0.105043	0.170067	0.899839	0.693929	-0.227301	0.10871	-0.147643	-0.193528	0.371227	0
211.04	-0.105019	0.170923	0.898689	0.70128	-0.268003	0.102889	-0.156577	-0.206783	0.364135	0
211.05	-0.105082	0.172003	0.897881	0.706754	-0.304748	0.097507	-0.164274	-0.22228	0.350781	0
211.06	-0.104948	0.172964	0.897417	0.709762	-0.334885	0.0899828	-0.170322	-0.239258	0.327212	0
211.07	-0.104786	0.174293	0.897203	0.711847	-0.363452	0.0816423	-0.174425	-0.25897	0.301546	0
211.08	-0.105633	0.175532	0.897485	0.715032	-0.393207	0.0728284	-0.173951	-0.283735	0.276674	0
211.09	-0.0872122	0.178879	0.899395	0.691595	-0.422126	0.0684744	-0.196561	-0.311389	0.252178	0
211.1	-0.107313	0.178046	0.899003	0.717353	-0.451755	0.0633548	-0.164048	-0.346224	0.213743	0
211.11	-0.106642	0.179774	0.899998	0.713438	-0.477562	0.0653821	-0.155164	-0.385952	0.17258	0
211.12	-0.104802	0.181642	0.9013	0.704619	-0.497838	0.0744912	-0.143386	-0.431776	0.127813	0
211.13	-0.0848829	0.185829	0.904091	0.66886	-0.512575	0.0881071	-0.151434	-0.481334	0.0737066	0
211.14	-0.101644	0.185146	0.904699	0.679918	-0.52388	0.100395	-0.104893	-0.539858	0.0174629	0
211.15	-0.0995093	0.186515	0.906334	0.664773	-0.531569	0.118319	-0.080443	-0.600271	-0.031891	0
211.16	-0.0850626	0.189462	0.908713	0.633803	-0.540083	0.136527	-0.0672344	-0.664283	-0.0916812	0
